PathFileType	4	(X/Y/Z)	markers_0_video_left_upright_43fa9c767a284c608474a81e5a60fe99.trc
DataRate	CameraRate	NumFrames	NumMarkers	Units	OrigDataRate	OrigDataStartFrame	OrigNumFrames
12.500000	12.500000	4	42	mm	12.500000	2262	3015
Frame#	Time	Nose			LEye			REye			LEar			REar			LShoulder			RShoulder			LElbow			RElbow			LHip			RHip			LKnee			RKnee			LAnkle			RAnkle			LBigToe			LSmallToe			LHeel			RBigToe			RSmallToe			RHeel			RIndex			RPinky			RWrist			LIndex			LPinky			LWrist			LOlecranon			ROlecranon			LCubitalFossa			RCubitalFossa			LAcromion			RAcromion			Neck			PelvisCenter			Thorax			c_spine0			c_spine1			c_spine2			c_spine3			c_neck			c_head
		X1	Y1	Z1	X2	Y2	Z2	X3	Y3	Z3	X4	Y4	Z4	X5	Y5	Z5	X6	Y6	Z6	X7	Y7	Z7	X8	Y8	Z8	X9	Y9	Z9	X10	Y10	Z10	X11	Y11	Z11	X12	Y12	Z12	X13	Y13	Z13	X14	Y14	Z14	X15	Y15	Z15	X16	Y16	Z16	X17	Y17	Z17	X18	Y18	Z18	X19	Y19	Z19	X20	Y20	Z20	X21	Y21	Z21	X22	Y22	Z22	X23	Y23	Z23	X24	Y24	Z24	X25	Y25	Z25	X26	Y26	Z26	X27	Y27	Z27	X28	Y28	Z28	X29	Y29	Z29	X30	Y30	Z30	X31	Y31	Z31	X32	Y32	Z32	X33	Y33	Z33	X34	Y34	Z34	X35	Y35	Z35	X36	Y36	Z36	X37	Y37	Z37	X38	Y38	Z38	X39	Y39	Z39	X40	Y40	Z40	X41	Y41	Z41	X42	Y42	Z42

2262	180.880000	5929.704939	1283.514470	2783.391191	5899.173087	1337.941743	2816.344526	5914.948601	1336.357066	2753.892351	5964.674902	1398.262631	2872.374662	6003.623124	1392.845594	2724.860711	6214.543226	1313.240002	2981.472981	6250.967264	1333.575150	2671.380250	6503.271572	1202.105540	3056.713139	6580.883870	1289.364744	2647.631995	6826.678949	1035.874819	2914.350814	6840.124912	1043.434568	2758.991895	7236.783223	723.153533	2976.975679	7258.630831	723.645943	2738.213217	7697.775577	545.600180	3040.318880	7716.850515	553.962950	2760.134479	7646.503027	361.124744	3050.559718	7684.831184	397.695881	3112.404276	7771.389774	544.188761	3042.964483	7684.201514	355.595589	2740.335904	7729.909184	392.796510	2685.118302	7786.832522	554.066211	2767.625257	6856.994723	1024.461487	2679.855654	6888.853656	1078.770850	2685.081371	6761.769808	1125.879374	2639.363924	6587.003360	852.732376	2877.172374	6640.088653	874.012338	2901.020398	6551.080010	976.849086	2967.788238	6535.713666	1199.489020	3065.206109	6616.603071	1305.589159	2646.891170	6481.148820	1187.186335	3036.758035	6563.166591	1267.212961	2652.437276	6160.579721	1313.882798	2981.124870	6201.911730	1333.111402	2661.254531	6159.469855	1321.070301	2815.422134	6833.401930	1039.654693	2836.671354	6181.245726	1323.497100	2821.189700	6814.793655	1098.081430	2839.611945	6679.034774	1154.575109	2836.018911	6553.072100	1231.992000	2833.944220	6324.196191	1316.439400	2827.227432	6197.430875	1313.296742	2820.070964	6045.586822	1344.391000	2801.475643
2263	180.960000	5969.412911	1279.992416	2792.172170	5939.305944	1334.120828	2827.802477	5956.489196	1335.583466	2762.852971	6006.458543	1394.849176	2890.966344	6048.770240	1396.742159	2737.554453	6257.592114	1306.199052	3010.110861	6297.671695	1343.254320	2684.235949	6544.958929	1191.268117	3093.790317	6629.227525	1304.252545	2658.721739	6867.985733	1031.370594	2939.715966	6885.335085	1046.151374	2778.263857	7276.316939	715.898684	2997.034562	7302.655612	725.867532	2756.707643	7738.362981	539.378709	3055.724332	7762.843569	559.129450	2784.231108	7684.704264	345.266952	3056.366791	7722.284748	381.447688	3123.244917	7812.468932	539.346289	3058.894839	7726.712434	355.279219	2753.587477	7774.953190	396.793513	2698.812126	7833.580107	560.271966	2793.780431	6906.049102	1015.441072	2680.010061	6937.147979	1074.275124	2686.669679	6810.095713	1127.241138	2641.214145	6616.735556	834.023963	2897.949458	6671.958953	855.925555	2925.790969	6584.509563	959.769756	2995.620022	6577.843491	1188.422267	3104.204655	6665.041406	1322.195599	2658.287529	6522.059015	1176.353109	3071.406155	6611.296425	1279.712476	2663.053578	6202.860720	1306.040492	3008.438383	6248.514876	1342.168982	2672.683056	6203.240221	1321.121978	2834.023702	6876.660409	1038.760984	2858.989911	6225.687798	1324.104737	2840.560720	6858.879903	1098.660929	2864.029708	6723.192178	1155.142431	2859.877157	6597.814729	1233.636282	2858.529923	6369.150032	1318.396915	2850.161471	6241.468160	1313.518685	2839.591965	6088.556446	1343.931854	2817.318914
2264	181.040000	6016.749285	1276.375949	2803.207702	5987.312909	1330.762864	2841.296857	6006.034095	1334.954823	2773.470359	6056.637042	1392.514351	2911.503160	6102.606327	1400.908389	2751.320176	6309.417483	1299.320109	3040.751383	6353.178543	1352.588882	2697.972430	6595.410047	1180.482434	3132.624335	6686.190325	1320.368823	2669.590936	6917.248350	1027.016962	2966.440357	6938.215807	1048.716534	2798.321764	7323.121244	707.386294	3017.846346	7351.831582	726.615301	2775.299674	7784.451072	534.351962	3075.536577	7811.092403	562.213362	2810.322982	7729.902621	332.425907	3068.028392	7766.588711	367.933870	3139.438272	7858.578306	535.817021	3079.718532	7773.297000	352.493625	2770.798765	7823.956332	398.126408	2716.434586	7881.887443	564.384137	2821.927856	6959.138404	1015.760310	2684.996106	6991.005903	1079.403765	2693.170524	6864.663571	1134.949344	2645.603690	6651.879010	813.690829	2924.431496	6709.780926	836.609349	2956.109618	6624.801382	941.771938	3027.859139	6628.793380	1177.545282	3145.085846	6722.536258	1340.563664	2669.648556	6571.554585	1165.360019	3107.887828	6667.652817	1293.404427	2673.579786	6253.928046	1298.431815	3037.907872	6303.797721	1350.746430	2685.080872	6255.630953	1321.118704	2854.232373	6927.732079	1037.866748	2882.381060	6278.862884	1324.589122	2861.494372	6911.011639	1099.371808	2889.423841	6775.534039	1155.747813	2884.707473	6650.894456	1235.321406	2884.087683	6422.690577	1320.320860	2874.377273	6294.214580	1313.582022	2860.616047	6139.880128	1343.728732	2835.081350
2265	181.120000	6056.708080	1277.123431	2811.998144	6027.664895	1331.205147	2852.753888	6047.848441	1338.445969	2782.471254	6098.591787	1393.310613	2930.100008	6148.056922	1409.017890	2764.116999	6352.622315	1296.412898	3069.350214	6400.143787	1366.405044	2710.792740	6637.278510	1173.405657	3169.324823	6734.883864	1339.287325	2680.578026	6958.899772	1026.435063	2991.647498	6983.829589	1055.342361	2817.599025	7362.799988	704.037671	3037.242574	7396.756395	733.051300	2794.323742	7825.603144	531.294296	3089.619567	7858.144879	572.149077	2834.828703	7768.068298	319.629721	3072.432827	7804.048993	354.800929	3148.930270	7900.334476	534.052552	3094.227219	7816.556511	356.767315	2784.886318	7869.824291	406.751997	2730.795814	7929.731896	575.464585	2848.399349	7008.929870	1010.501675	2684.967986	7040.030678	1078.696966	2694.617158	6913.564896	1140.164022	2647.310921	6681.901249	799.146526	2944.661840	6741.911905	822.482324	2980.379836	6658.500261	928.621010	3055.160296	6671.092403	1170.168049	3183.705148	6771.338612	1361.189815	2680.941824	6612.656623	1158.363167	3142.168154	6716.134353	1309.932075	2684.093382	6296.361759	1294.749374	3065.164772	6350.649243	1363.937677	2696.476828	6299.617511	1325.339323	2872.852694	6971.364681	1040.888712	2904.623262	6323.505501	1329.343526	2880.820800	6955.459705	1103.850765	2913.792543	6820.035733	1160.269290	2908.507868	6695.972357	1240.965162	2908.633556	6467.922739	1326.383547	2897.305043	6338.459020	1317.963057	2880.141982	6183.093050	1347.468083	2850.984828
